<svg width="22" height="16" viewBox="0 0 22 16" fill="none" xmlns="http://www.w3.org/2000/svg">
<path d="M11 2.13333C14.79 2.13333 18.17 4.40533 19.82 8C18.17 11.5947 14.8 13.8667 11 13.8667C7.2 13.8667 3.83 11.5947 2.18 8C3.83 4.40533 7.21 2.13333 11 2.13333ZM11 0C6 0 1.73 3.31733 0 8C1.73 12.6827 6 16 11 16C16 16 20.27 12.6827 22 8C20.27 3.31733 16 0 11 0ZM11 5.33333C12.38 5.33333 13.5 6.528 13.5 8C13.5 9.472 12.38 10.6667 11 10.6667C9.62 10.6667 8.5 9.472 8.5 8C8.5 6.528 9.62 5.33333 11 5.33333ZM11 3.2C8.52 3.2 6.5 5.35467 6.5 8C6.5 10.6453 8.52 12.8 11 12.8C13.48 12.8 15.5 10.6453 15.5 8C15.5 5.35467 13.48 3.2 11 3.2Z" fill="#8B8B8B"/>
</svg>